<?xml version="1.0" encoding="utf-8"?>
<!-- Generator: Adobe Illustrator 16.0.0, SVG Export Plug-In . SVG Version: 6.00 Build 0)  -->
<!DOCTYPE svg PUBLIC "-//W3C//DTD SVG 1.1//EN" "http://www.w3.org/Graphics/SVG/1.1/DTD/svg11.dtd">
<svg version="1.1" id="圖層_1" xmlns="http://www.w3.org/2000/svg" xmlns:xlink="http://www.w3.org/1999/xlink" x="0px" y="0px"
	 width="90px" height="90px" viewBox="0 0 90 90" enable-background="new 0 0 90 90" xml:space="preserve">
<g id="帝王向量包_07">
	<path fill="#050000" d="M89.095,43.052c-1.532-1.63-7.161-5.171-10.396-1.479c-1.138,0.189-3.467,2.979-4.338,6.791
		c-0.425,1.858-2.575,1.272-2.217-0.488s5.7-7.329,6.742-7.59c1.043-0.26,0.489-0.586-0.294-0.423
		c-0.782,0.163-3.455,0.749-4.334,2.999c0,0-0.454-1.762-2.347-1.762c-0.556,0-2.114,4.136-2.049,6.417
		c0.064,2.281-3.357,2.869-3.748,0.685c-1.979-11.042,23.45-16.296,20.846-16.254c2.022-0.033,0.552-1.618-2.054-1.826
		c-2.867-0.228-6.942-0.098-10.333,4.173c0,0-1.572-2.744,0.34-5.134c1.535-1.919-0.164-2.28-1.564-1.913
		c-1.204,0.315-1.899,0.733-2.277,1.174c-0.563-0.766-1.319-1.683-2.138-2.375c-1.694-1.434-1.954-0.848-1.302-0.13
		c0.006,0.007,0.014,0.016,0.021,0.023c-0.004,0.002-0.006,0.006-0.01,0.008c2.889,3.01-6.233,11.514-6.233,16.016
		c0,9.099-7.259,16.489-16.3,16.731c-9.041-0.242-16.3-7.633-16.3-16.731c0-4.502-9.122-13.006-6.233-16.016
		c-0.004-0.002-0.006-0.006-0.01-0.008c0.007-0.007,0.015-0.016,0.021-0.023c0.653-0.718,0.392-1.304-1.303,0.13
		c-0.818,0.691-1.573,1.608-2.137,2.375c-0.378-0.44-1.074-0.858-2.277-1.174c-1.4-0.367-3.1-0.007-1.565,1.913
		c1.913,2.39,0.339,5.134,0.339,5.134c-3.39-4.271-7.465-4.401-10.333-4.173c-2.605,0.208-4.074,1.793-2.053,1.826
		c-2.604-0.042,22.826,5.213,20.847,16.254c-0.391,2.185-3.813,1.597-3.748-0.685s-1.494-6.417-2.049-6.417
		c-1.893,0-2.347,1.762-2.347,1.762c-0.88-2.25-3.553-2.836-4.335-2.999s-1.336,0.163-0.293,0.423
		c1.042,0.261,6.383,5.829,6.742,7.59c0.358,1.761-1.792,2.347-2.217,0.488c-0.87-3.813-3.2-6.602-4.337-6.791
		c-3.235-3.693-8.864-0.151-10.396,1.479c-1.532,1.63-0.782,2.38-0.195,1.63c0.586-0.75,1.597-1.401,4.889-1.401
		c3.292,0,5.574,4.009,5.574,7.921s2.835,4.66,2.835,4.66c-0.423,0-1.561,1.869-1.923,3.685c-0.293,1.466-1.988,2.966-4.042,2.607
		c-2.054-0.359-1.728-2.249-1.01-3.26c0.718-1.011-0.358-1.531-0.946-1.043c-2.053,1.434-2.77,7.008,2.38,8.54
		c5.149,1.531,7.855-2.737,7.855-2.737s-2.804,6.844,2.901,10.072c1.793,0.88,2.478-0.555,0.945-1.859
		c-1.532-1.303-1.369-5.866,0-7.171c0,0-0.391,1.174,0.62,1.174c1.476,0,1.387-4.9,4.876-4.032
		c-0.962,1.469-1.513,3.337-1.281,5.402c0.652,5.779,7.252,9.945,4.521,12.95c-1.739,1.913,0.391,3.347,2.39,1.739
		c2.804-2.256,7.301-8.259,1.173-14.299c-5.516-5.438-2.042-6.911-0.652-6.477c1.391,0.436,1.532,2.218,1.227,3.217
		c-0.008,0.028-0.012,0.056-0.013,0.084c-0.053,0.224-0.084,0.458-0.084,0.697c0,1.597,1.229,2.904,2.793,3.031
		c0.69,0.152,0.514,0.837,0.119,1.272c-0.435,0.478-0.043,1.304,0.739,0.564c0.652-0.548,1.144-1.091,1.511-1.609
		c0.008,0.098,0.017,0.195,0.03,0.292c0.008,0.064,0.018,0.127,0.028,0.191c0.014,0.084,0.026,0.168,0.042,0.251
		c0.013,0.07,0.029,0.139,0.044,0.207c0.017,0.075,0.034,0.149,0.053,0.223c0.02,0.074,0.04,0.146,0.061,0.219
		c0.019,0.067,0.039,0.134,0.06,0.197c0.025,0.079,0.051,0.155,0.08,0.231c0.02,0.057,0.042,0.113,0.063,0.168
		c0.032,0.084,0.065,0.166,0.101,0.247c0.019,0.044,0.039,0.087,0.059,0.13c0.042,0.09,0.084,0.182,0.13,0.271
		c0.011,0.022,0.024,0.044,0.036,0.067c0.609,1.165,1.525,2.143,2.646,2.82c0.143,0.075,0.323-0.149,0.08-0.357
		c-0.144-0.122-0.28-0.253-0.411-0.389c-0.089-0.092-0.174-0.188-0.257-0.285c-0.036-0.043-0.069-0.085-0.104-0.129
		c-0.083-0.104-0.162-0.21-0.237-0.319c-0.026-0.039-0.051-0.078-0.076-0.116c-0.072-0.112-0.141-0.226-0.206-0.342
		c-0.019-0.034-0.035-0.067-0.053-0.102c-0.063-0.119-0.121-0.242-0.176-0.367c-0.013-0.03-0.026-0.059-0.039-0.09
		c-0.058-0.139-0.108-0.282-0.155-0.427c-0.01-0.033-0.02-0.064-0.031-0.099c-0.044-0.147-0.082-0.297-0.114-0.448
		c-0.007-0.031-0.013-0.062-0.019-0.093c-0.03-0.157-0.056-0.317-0.072-0.479c-0.003-0.021-0.004-0.044-0.006-0.066
		c-0.016-0.173-0.026-0.348-0.026-0.524c0-2.979,2.32-5.406,5.25-5.594c2.93,0.188,5.249,2.615,5.249,5.594
		c0,0.177-0.01,0.352-0.025,0.524c-0.002,0.022-0.003,0.045-0.006,0.066c-0.016,0.162-0.041,0.322-0.072,0.479
		c-0.007,0.031-0.012,0.062-0.019,0.093c-0.031,0.151-0.07,0.301-0.114,0.448c-0.01,0.034-0.02,0.065-0.03,0.099
		c-0.047,0.145-0.099,0.288-0.155,0.427c-0.012,0.031-0.026,0.06-0.04,0.09c-0.054,0.125-0.112,0.248-0.176,0.367
		c-0.018,0.034-0.033,0.067-0.053,0.102c-0.063,0.116-0.134,0.229-0.206,0.342c-0.024,0.038-0.049,0.077-0.074,0.116
		c-0.075,0.109-0.155,0.216-0.237,0.319c-0.034,0.044-0.069,0.086-0.104,0.129c-0.082,0.098-0.167,0.193-0.257,0.285
		c-0.13,0.136-0.267,0.267-0.411,0.389c-0.242,0.208-0.063,0.433,0.079,0.357c1.121-0.678,2.038-1.655,2.646-2.82
		c0.012-0.023,0.025-0.045,0.036-0.067c0.046-0.09,0.088-0.182,0.13-0.271c0.02-0.043,0.039-0.086,0.059-0.13
		c0.036-0.081,0.069-0.163,0.101-0.247c0.022-0.055,0.044-0.111,0.063-0.168c0.027-0.076,0.056-0.152,0.079-0.231
		c0.021-0.063,0.041-0.13,0.062-0.197c0.02-0.072,0.041-0.145,0.06-0.219c0.02-0.073,0.037-0.147,0.053-0.223
		c0.016-0.068,0.031-0.137,0.044-0.207c0.017-0.083,0.029-0.167,0.043-0.251c0.01-0.064,0.02-0.127,0.027-0.191
		c0.013-0.097,0.021-0.194,0.03-0.292c0.367,0.519,0.858,1.062,1.511,1.609c0.783,0.739,1.174-0.087,0.74-0.564
		c-0.396-0.436-0.573-1.12,0.118-1.272c1.563-0.127,2.793-1.435,2.793-3.031c0-0.239-0.03-0.474-0.084-0.697
		c-0.002-0.028-0.005-0.056-0.014-0.084c-0.304-0.999-0.164-2.781,1.229-3.217c1.39-0.435,4.863,1.038-0.653,6.477
		c-6.128,6.04-1.63,12.043,1.174,14.299c1.999,1.607,4.129,0.174,2.39-1.739c-2.73-3.005,3.869-7.171,4.521-12.95
		c0.232-2.065-0.318-3.934-1.281-5.402c3.489-0.868,3.401,4.032,4.877,4.032c1.012,0,0.619-1.174,0.619-1.174
		c1.37,1.305,1.531,5.868,0,7.171c-1.532,1.305-0.848,2.739,0.945,1.859c5.704-3.229,2.901-10.072,2.901-10.072
		s2.706,4.269,7.856,2.737c5.149-1.532,4.433-7.106,2.379-8.54c-0.586-0.488-1.662,0.032-0.945,1.043
		c0.718,1.011,1.043,2.9-1.011,3.26c-2.054,0.358-3.748-1.142-4.042-2.607c-0.362-1.815-1.499-3.685-1.922-3.685
		c0,0,2.836-0.748,2.836-4.66s2.28-7.921,5.574-7.921c3.291,0,4.302,0.651,4.888,1.401C89.877,45.432,90.626,44.682,89.095,43.052z
		 M18.303,56.155c2.321-1.74,4.82-1.202,6.02-0.579c-1.313-0.435-3.336-0.561-5.24,0.867c-2.45,1.837-2.227,4.101-1.62,4.977
		C16.701,62.277,14.795,58.786,18.303,56.155z M28.343,55.83c0,0,0.27,0.518,0.848,1.166c0.104,0.878-0.042,1.605-0.244,2.142
		c-0.397,0.186-0.79,0.402-1.162,0.677C28.084,59.401,28.973,57.94,28.343,55.83z M40.257,62.87
		c-0.436-0.137-0.865-0.288-1.286-0.456c0.431,0.155,0.868,0.3,1.313,0.425C40.274,62.849,40.267,62.86,40.257,62.87z
		 M39.122,64.268c-0.211-0.935-0.79-1.726-1.642-2.461c0.192,0.089,0.394,0.162,0.59,0.245c0.646,0.561,1.126,1.157,1.408,1.824
		c-0.109,0.167-0.224,0.33-0.319,0.506C39.146,64.341,39.134,64.303,39.122,64.268z M51.098,64.268
		c-0.013,0.035-0.025,0.073-0.038,0.114c-0.305-0.565-0.685-1.083-1.125-1.543c0.969-0.271,1.906-0.616,2.804-1.032
		c-0.253,0.219-0.474,0.444-0.676,0.675c-0.553,0.214-1.115,0.41-1.692,0.572c0.298,0.311,0.556,0.657,0.793,1.019
		C51.144,64.139,51.113,64.2,51.098,64.268z M61.876,55.83c-0.11,0.368-0.161,0.708-0.189,1.034
		c-0.394,0.513-1.043,1.197-1.99,1.791c-0.221-0.03-0.441-0.061-0.659-0.059C61.05,57.475,61.876,55.83,61.876,55.83z
		 M71.916,56.155c0.7,0.525,1.181,1.085,1.502,1.638c-0.311-0.458-0.728-0.916-1.306-1.35c-2.89-2.167-6.06-0.766-6.588-0.117
		c-0.044-0.001-0.083-0.008-0.128-0.008C64.157,56.318,68.265,53.418,71.916,56.155z M72.666,61.307c0,0-0.348-0.857-1.121-1.858
		c0.823,0.992,1.226,1.89,1.294,2.053C72.775,61.458,72.716,61.399,72.666,61.307z"/>
	<text transform="matrix(1 0 0 1 27.3721 51.2871)" font-family="'DFLiu-W3-WIN-BF'" font-size="89.1117">J</text>
</g>
</svg>
